<svg fill="none" height="24" viewBox="0 0 24 24" width="24" xmlns="http://www.w3.org/2000/svg"><g fill="#000"><path clip-rule="evenodd" d="m12.1387 4.5748c1.0525-.8771 2.6586-.24333 2.8285 1.11615.5237 4.18974.5237 8.42835 0 12.61815-.1699 1.3595-1.776 1.9932-2.8285 1.1161l-4.3407-3.6172c-.04493-.0375-.10157-.058-.16005-.058h-3.63795c-.9665 0-1.75-.7835-1.75-1.75v-4c0-.96649.7835-1.74999 1.75-1.74999h3.63795c.05848 0 .11512-.0205.16005-.05794zm1.3401 1.30221c-.0228-.18255-.2385-.26765-.3798-.14988l-4.34073 3.61727c-.3145.26208-.71093.40561-1.12032.40561h-3.63795c-.13807 0-.25.11193-.25.24999v4c0 .1381.11193.25.25.25h3.63795c.40939 0 .80582.1435 1.12032.4056l4.34073 3.6173c.1413.1178.357.0327.3798-.1499.5083-4.0662.5083-8.17981 0-12.24599z" fill-rule="evenodd"/><path d="m17.2019 9.70192c.2929-.2929.7678-.2929 1.0607 0l1.2374 1.23738 1.2374-1.23739c.2929-.29289.7678-.29289 1.0607 0 .2929.2929.2929.76779 0 1.06069l-1.2374 1.2374 1.2374 1.2374c.2929.2929.2929.7678 0 1.0607s-.7678.2929-1.0607 0l-1.2374-1.2374-1.2374 1.2374c-.2929.2929-.7678.2929-1.0607 0s-.2929-.7678 0-1.0607l1.2374-1.2374-1.2374-1.2374c-.2929-.2929-.2929-.76779 0-1.06068z"/></g></svg>