<svg fill="none" height="24" viewBox="0 0 24 24" width="24" xmlns="http://www.w3.org/2000/svg"><g fill="#000"><path clip-rule="evenodd" d="m15.9672 5.69095c-.1699-1.35948-1.776-1.99325-2.8285-1.11615l-4.3407 3.61727c-.04493.03744-.10157.05794-.16005.05794h-3.63795c-.9665 0-1.75.7835-1.75 1.74999v4c0 .9665.7835 1.75 1.75 1.75h3.63795c.05848 0 .11512.0205.16005.058l4.3407 3.6172c1.0525.8771 2.6586.2434 2.8285-1.1161.5237-4.1898.5237-8.42841 0-12.61815zm-1.8682.03618c.1413-.11777.357-.03267.3798.14988.5083 4.06618.5083 8.17979 0 12.24599-.0228.1826-.2385.2677-.3798.1499l-4.34073-3.6173c-.3145-.2621-.71093-.4056-1.12032-.4056h-3.63795c-.13807 0-.25-.1119-.25-.25v-4c0-.13806.11193-.24999.25-.24999h3.63795c.40939 0 .80582-.14353 1.12032-.40561z" fill-rule="evenodd"/><path d="m19.0323 7.94771c-.1429-.3888-.5738-.58818-.9626-.44533-.3888.14286-.5882.57385-.4454.96265.4045 1.10093.6257 2.29127.6257 3.53497 0 1.0316-.1522 2.0264-.4348 2.9637-.0157.0522-.0319.1043-.0484.1561-.0446.1397-.0921.2782-.1425.4152-.1428.3888.0566.8198.4454.9627.3888.1428.8197-.0566.9626-.4454.0578-.1572.1123-.3161.1635-.4764.019-.0596.0375-.1193.0556-.1792.3245-1.0763.4986-2.2168.4986-3.3967 0-1.4228-.2532-2.78812-.7177-4.05229z"/></g></svg>