<svg fill="none" height="24" viewBox="0 0 24 24" width="24" xmlns="http://www.w3.org/2000/svg"><g fill="#000"><path clip-rule="evenodd" d="m12.1387 4.5748c1.0525-.8771 2.6586-.24333 2.8285 1.11615.5237 4.18974.5237 8.42835 0 12.61815-.1699 1.3595-1.776 1.9932-2.8285 1.1161l-4.3407-3.6172c-.04493-.0375-.10157-.058-.16005-.058h-3.63795c-.9665 0-1.75-.7835-1.75-1.75v-4c0-.96649.7835-1.74999 1.75-1.74999h3.63795c.05848 0 .11512-.0205.16005-.05794zm1.3401 1.30221c-.0228-.18255-.2385-.26765-.3798-.14988l-4.34073 3.61727c-.3145.26208-.71093.40561-1.12032.40561h-3.63795c-.13807 0-.25.11193-.25.24999v4c0 .1381.11193.25.25.25h3.63795c.40939 0 .80582.1435 1.12032.4056l4.34073 3.6173c.1413.1178.357.0327.3798-.1499.5083-4.0662.5083-8.17981 0-12.24599z" fill-rule="evenodd"/><path d="m19.9082 5.94578c.3932-.13006.8175.0833.9475.47656.5805 1.75497.8943 3.63046.8943 5.57766 0 1.9473-.3138 3.8227-.8943 5.5777-.13.3933-.5543.6066-.9475.4766-.3933-.1301-.6067-.5543-.4766-.9476.5308-1.6049.8184-3.3215.8184-5.1067s-.2876-3.50172-.8184-5.10664c-.1301-.39327.0833-.81751.4766-.94758z"/><path d="m18.0323 7.94771c-.1429-.3888-.5739-.58818-.9627-.44533-.3888.14286-.5881.57385-.4453.96265.4045 1.10093.6257 2.29127.6257 3.53497 0 1.0316-.1522 2.0264-.4348 2.9637-.0157.0522-.0319.1043-.0484.1561-.0446.1397-.0921.2782-.1425.4152-.1428.3888.0565.8198.4453.9627.3888.1428.8198-.0566.9627-.4454.0578-.1572.1123-.3161.1635-.4764.019-.0596.0375-.1193.0556-.1792.3244-1.0763.4986-2.2168.4986-3.3967 0-1.4228-.2532-2.78812-.7177-4.05229z"/></g></svg>